# xmcd CD database file
#
# Track frame offsets:
#	150
#	20232
#	47068
#	70238
#	100042
#	131464
#	153919
#	182688
#	216453
#	268482
#	297067
#
# Disc length: 4458 seconds
#
# Revision: 0
# Processed by: cddbd v1.5.1PL2 Copyright (c) Steve Scherf et al.
# Submitted via: CDex 1.51
#
DISCID=a611680b
DTITLE=Big Mike Griffin - Live At The Full Moon Saloon
DYEAR=2002
DGENRE=Blues
TTITLE0=Cool Guitar
TTITLE1=Ain't Never Gonna Do
TTITLE2=Electric Man
TTITLE3=Highway
TTITLE4=Somebody's Been Talkin'
TTITLE5=Play With Your Poodle
TTITLE6=Fifth Of Whiskey (Case Of The Blues)
TTITLE7=Let's Have A Party
TTITLE8=Twin Brothers
TTITLE9=I'd Rather Go Blind
TTITLE10=Hey Joe
EXTD=YEAR: 2002
EXTT0=
EXTT1=
EXTT2=
EXTT3=
EXTT4=
EXTT5=
EXTT6=
EXTT7=
EXTT8=
EXTT9=
EXTT10=
PLAYORDER=
